<svg width="21" height="20" viewBox="0 0 21 20" fill="none" xmlns="http://www.w3.org/2000/svg">
<g opacity="0.3">
<path d="M7.7462 9.08048L7.752 9.07203C7.75007 9.07485 7.74813 9.07767 7.7462 9.08048Z" fill="white"/>
<path fill-rule="evenodd" clip-rule="evenodd" d="M20.5 10C20.5 15.5228 16.0228 20 10.5 20C4.97715 20 0.5 15.5228 0.5 10C0.5 4.47715 4.97715 0 10.5 0C16.0228 0 20.5 4.47715 20.5 10ZM8.334 10.397L7.7462 9.08048C7.69892 9.14933 7.65128 9.21759 7.60424 9.28498C7.54669 9.36744 7.49003 9.44861 7.436 9.52804C7.41122 9.56339 7.38653 9.59855 7.36195 9.63355C7.14943 9.93615 6.94526 10.2269 6.766 10.528C6.60263 10.846 6.27022 11.0408 5.913 11.028H5.859C5.626 11.015 5.373 11.015 5.059 11.015H3.914C3.70942 11.0285 3.50811 10.9585 3.356 10.821C3.24156 10.6937 3.18507 10.5246 3.2 10.354C3.19772 10.1765 3.27302 10.0068 3.4062 9.8894C3.53937 9.77199 3.71715 9.71853 3.893 9.74304H4.78C4.981 9.74304 5.145 9.74803 5.296 9.75803H5.371C5.64161 9.7635 5.89007 9.60909 6.005 9.36403C6.235 8.99403 6.483 8.62403 6.725 8.26403V8.25803C6.77162 8.18765 6.8187 8.11689 6.86594 8.0459C6.97373 7.88391 7.08231 7.72073 7.188 7.55803C7.352 7.30604 7.526 7.07903 7.865 7.07903H7.931C8.309 7.11003 8.429 7.38104 8.556 7.66803L8.566 7.69103C9.154 9.02003 9.755 10.373 10.337 11.681L10.351 11.712L10.361 11.735C10.3856 11.7847 10.4082 11.8336 10.4332 11.8876C10.455 11.9348 10.4786 11.9859 10.507 12.045L10.617 12.275L11.105 10.736L11.169 10.536L11.951 8.07104V8.06104C11.9744 7.98711 11.9979 7.91295 12.0215 7.83859C12.2445 7.13548 12.473 6.41458 12.691 5.70104C12.779 5.41403 12.919 5.11704 13.319 5.10104H13.352C13.759 5.10104 13.923 5.41804 14.023 5.69404C14.1443 6.03337 14.2663 6.3727 14.389 6.71204L14.402 6.74704C14.708 7.60004 15.021 8.47703 15.321 9.34703C15.425 9.65104 15.563 9.76404 15.831 9.76404H15.915C16.058 9.75304 16.215 9.74704 16.395 9.74704C16.4755 9.74704 16.5563 9.74906 16.6365 9.75107C16.7158 9.75306 16.7945 9.75503 16.872 9.75503L17.08 9.76004C17.2405 9.74596 17.3994 9.80122 17.5165 9.91186C17.6337 10.0225 17.6979 10.178 17.693 10.339C17.7141 10.509 17.6599 10.6796 17.5445 10.8062C17.4291 10.9327 17.2642 11.0024 17.093 10.997C16.793 11.009 16.474 11.009 16.093 11.009H14.979C14.598 11.005 14.453 10.736 14.36 10.474C14.1651 9.92694 13.9619 9.37483 13.7472 8.79166C13.7273 8.7374 13.7072 8.68286 13.687 8.62803L13.387 7.80003L12.997 9.02804L12.989 9.05303C12.743 9.82603 12.511 10.556 12.281 11.287L12.249 11.387C12.2105 11.5093 12.1718 11.632 12.133 11.7553C11.8863 12.5387 11.6335 13.3411 11.389 14.136C11.275 14.507 11.119 14.76 10.731 14.783H10.687C10.313 14.783 10.166 14.52 10.026 14.202C9.474 12.95 8.924 11.718 8.343 10.418L8.334 10.397Z" fill="white"/>
</g>
</svg>
