<svg width="21" height="20" viewBox="0 0 21 20" fill="none" xmlns="http://www.w3.org/2000/svg">
<path opacity="0.3" fill-rule="evenodd" clip-rule="evenodd" d="M0.5 9.78149C0.516248 11.4749 0.972652 13.1351 1.82505 14.6003C2.67745 16.0655 3.89671 17.2856 5.36359 18.1416C6.83046 18.9975 8.49504 19.4602 10.1949 19.4844C11.8948 19.5085 13.5718 19.0934 15.0626 18.2794L20.5 20L18.7283 14.7884C19.6525 13.2807 20.1408 11.548 20.139 9.78149C20.139 7.18728 19.1046 4.6993 17.263 2.86492C15.4215 1.03054 12.9237 0 10.3194 0C7.71508 0 5.21753 1.03054 3.37601 2.86492C1.53449 4.6993 0.5 7.18728 0.5 9.78149Z" fill="white"/>
</svg>
