<svg width="21" height="20" viewBox="0 0 21 20" fill="none" xmlns="http://www.w3.org/2000/svg">
<path fill-rule="evenodd" clip-rule="evenodd" d="M2.42161 4.06389V4.06944C1.60073 5.21932 1.02454 6.52542 0.728763 7.90692C0.43299 9.28842 0.42395 10.7159 0.702085 12.1011C0.463568 10.7421 2.25515 9.97118 3.34234 9.63838C9.84884 7.63046 21.2921 10.9807 18.9679 15.3071C19.1676 14.9688 19.4172 14.4973 19.5947 14.1423C19.8721 13.5211 20.5211 11.5742 20.449 10.4759C20.0108 4.0251 4.93989 1.01874 2.42161 4.06389ZM14.8411 11.1693C8.60085 9.02824 -0.346283 10.7921 1.66724 14.7136C2.20826 15.6788 2.89064 16.5575 3.6918 17.3206C7.76321 20.7817 11.5629 19.9275 12.0732 19.8554C12.2673 19.8288 12.4599 19.7918 12.65 19.7445C12.6057 19.7445 12.0676 19.8055 12.0232 19.811C10.0097 20.0163 7.90193 19.6446 7.20302 18.5408C6.23232 16.9988 10.1096 15.6288 13.5875 16.2833C15.3403 16.6106 17.1597 17.5203 15.7286 18.502L16.1667 18.2191C17.0611 17.5846 17.8557 16.8199 18.5242 15.9506C19.7334 14.2643 18.2524 12.3452 14.8411 11.1693ZM18.5686 4.14155C17.6867 2.93161 16.5458 1.93376 15.2292 1.22079C13.9126 0.507813 12.4535 0.0976598 10.9583 0.0203063C7.03662 -0.251483 4.05791 2.28896 3.71401 2.62731C5.98268 0.558379 19.4727 1.23508 20.4933 10.3983C20.5754 8.15537 19.8971 5.95053 18.5686 4.14155Z" fill="white"/>
</svg>
