<svg width="21" height="16" viewBox="0 0 21 16" fill="none" xmlns="http://www.w3.org/2000/svg">
<path opacity="0.3" fill-rule="evenodd" clip-rule="evenodd" d="M1.43182 0H19.5682C20.359 0 21 0.632069 21 1.41176C21 2.19146 20.359 2.82353 19.5682 2.82353H1.43182C0.641047 2.82353 0 2.19146 0 1.41176C0 0.632069 0.641047 0 1.43182 0ZM7.82312 6.58824H19.5682C20.359 6.58824 21 7.2203 21 8C21 8.7797 20.359 9.41177 19.5682 9.41177H7.82312C7.03235 9.41177 6.3913 8.7797 6.3913 8C6.3913 7.2203 7.03235 6.58824 7.82312 6.58824ZM1.43182 13.1765H19.5682C20.359 13.1765 21 13.8085 21 14.5882C21 15.3679 20.359 16 19.5682 16H1.43182C0.641047 16 0 15.3679 0 14.5882C0 13.8085 0.641047 13.1765 1.43182 13.1765Z" fill="white"/>
</svg>
