<svg width="19" height="20" viewBox="0 0 19 20" fill="none" xmlns="http://www.w3.org/2000/svg">
<path opacity="0.3" fill-rule="evenodd" clip-rule="evenodd" d="M0.00985026 14.3828V2.96923C-0.0514221 1.93006 0.460587 0.942114 1.33942 0.403763C2.21825 -0.134588 3.31901 -0.134588 4.19784 0.403763C5.07667 0.942114 5.58868 1.93006 5.52741 2.96923V14.5254C5.53079 16.6542 6.76263 18.5839 8.67668 19.4589C7.84572 19.8254 6.94706 20.0073 6.04103 19.9925C4.50351 20.0715 2.99892 19.5225 1.86365 18.4682C0.728384 17.414 0.0571392 15.9425 0 14.3828H0.00985026ZM6.75393 14.3828V6.34908C6.69737 5.31313 7.21034 4.33037 8.087 3.79514C8.96366 3.2599 10.0603 3.2599 10.937 3.79514C11.8137 4.33037 12.3266 5.31313 12.2701 6.34908V14.2658C12.1827 16.4347 13.7893 18.2915 15.9217 18.486C16.0624 18.5002 16.22 18.5074 16.372 18.5074C16.5352 18.5069 16.6982 18.4974 16.8603 18.4788C15.1266 19.9947 12.7044 20.4052 10.5786 19.5435C8.45284 18.6817 6.97751 16.6913 6.75252 14.3814L6.75393 14.3828ZM13.4853 9.59336V13.9548L13.4824 13.9619C13.4824 16.169 14.6532 17.5714 16.3362 17.5757C17.6801 17.5757 18.9592 16.557 19 13.9804V9.59336C19 8.04939 17.7655 6.79776 16.2426 6.79776C14.7198 6.79776 13.4853 8.04939 13.4853 9.59336Z" fill="white"/>
</svg>
